HIERARCHY
ROOT Hips
{
  OFFSET 3.13124 94.3669 -3.18751
  CHANNELS  6 Xposition Yposition Zposition Zrotation Xrotation Yrotation
  JOINT LeftUpLeg
  {
    OFFSET 8.64259 1.95398 -2.38835
    CHANNELS 3 Zrotation Xrotation Yrotation
    JOINT LeftLeg
    {
      OFFSET 43.7702 0 0
      CHANNELS 3 Zrotation Xrotation Yrotation
      JOINT LeftFoot
      {
        OFFSET 40.6238 0 0
        CHANNELS 3 Zrotation Xrotation Yrotation
        JOINT LeftToeBase
        {
          OFFSET 12.7242 0 0
          CHANNELS 3 Zrotation Xrotation Yrotation
          End Site
          {
            OFFSET 0 0 0
          }
        }
      }
    }
  }
  JOINT RightUpLeg
  {
    OFFSET -8.2249 1.95398 -2.59336
    CHANNELS 3 Zrotation Xrotation Yrotation
    JOINT RightLeg
    {
      OFFSET 43.5653 0 0
      CHANNELS 3 Zrotation Xrotation Yrotation
      JOINT RightFoot
      {
        OFFSET 40.6238 0 0
        CHANNELS 3 Zrotation Xrotation Yrotation
        JOINT RightToeBase
        {
          OFFSET 12.7242 0 0
          CHANNELS 3 Zrotation Xrotation Yrotation
          End Site
          {
            OFFSET 0 0 0
          }
        }
      }
    }
  }
  JOINT Spine
  {
    OFFSET 0.165834 0.87714 6.61349
    CHANNELS 3 Zrotation Xrotation Yrotation
    JOINT Spine1
    {
      OFFSET 7.38962 1.71661e-005 0
      CHANNELS 3 Zrotation Xrotation Yrotation
      JOINT Spine2
      {
        OFFSET 11.9445 1.14441e-005 0
        CHANNELS 3 Zrotation Xrotation Yrotation
        JOINT Spine3
        {
          OFFSET 14.7254 4.19617e-005 0
          CHANNELS 3 Zrotation Xrotation Yrotation
          JOINT Spine4
          {
            OFFSET 10.9679 0 0
            CHANNELS 3 Zrotation Xrotation Yrotation
            JOINT RightShoulder
            {
              OFFSET 2.46616 -1.6653 3.69651
              CHANNELS 3 Zrotation Xrotation Yrotation
              JOINT RightArm
              {
                OFFSET 13.0012 0 0
                CHANNELS 3 Zrotation Xrotation Yrotation
                JOINT RightForeArm
                {
                  OFFSET 28.7848 1.52588e-005 0
                  CHANNELS 3 Zrotation Xrotation Yrotation
                  JOINT RightHand
                  {
                    OFFSET 26.5688 1.52588e-005 0
                    CHANNELS 3 Zrotation Xrotation Yrotation
                    End Site
                    {
                      OFFSET 0 0 0
                    }
                  }
                }
              }
            }
            JOINT LeftShoulder
            {
              OFFSET 2.38034 -1.29275 -3.75231
              CHANNELS 3 Zrotation Xrotation Yrotation
              JOINT LeftArm
              {
                OFFSET 16.3182 6.10352e-005 0
                CHANNELS 3 Zrotation Xrotation Yrotation
                JOINT LeftForeArm
                {
                  OFFSET 27.0901 0 0
                  CHANNELS 3 Zrotation Xrotation Yrotation
                  JOINT LeftHand
                  {
                    OFFSET 24.5451 1.52588e-005 0
                    CHANNELS 3 Zrotation Xrotation Yrotation
                    End Site
                    {
                      OFFSET 0 0 0
                    }
                  }
                }
              }
            }
            JOINT Neck
            {
              OFFSET 5.0226 -0.0266342 0
              CHANNELS 3 Zrotation Xrotation Yrotation
              JOINT Head
              {
                OFFSET 6.69363 2.86102e-005 0
                CHANNELS 3 Zrotation Xrotation Yrotation
                End Site
                {
                  OFFSET 0 0 0
                }
              }
            }
          }
        }
      }
    }
  }
}
MOTION
Frames:	9
Frame Time:	0.0333333
4.32877 96.0925 -5.63838 -156.805 -89.9909 -156.806 -179.657 1.76626 90.5604 -7.34482 0.185069 0.023255 62.6103 1.39608 0.706253 28.7808 5.85108e-006 8.3626e-006 -179.964 1.8194 90.149 -7.44921 0.17753 -0.00240305 62.6549 -1.14983 -0.58177 28.7808 1.43143e-005 3.292e-005 -0.000176452 6.33762 -89.9982 14.1989 0.00157272 6.06831e-006 2.52801 9.49956e-005 -1.07009e-005 -20.0072 -1.48128e-006 8.05938e-006 0.00549218 -4.93079e-017 1.23755e-017 101.183 -17.9808 -84.627 -6.05691 27.9029 -8.62071 -6.54844 -28.7075 -9.26128 1.65857 0.0976634 1.1867 -78.8331 -21.0675 94.6361 13.2343 -45.8095 -7.45754 5.32591 45.7292 -11.8613 -1.74284 -0.0546447 2.15316 1.75322 0.000779701 -0.000665384 -7.41388 0.000853406 -0.00396929 
4.34826 96.0984 -5.61794 -97.2084 -89.9386 -97.2198 -179.672 1.14749 90.5224 -6.11729 0.0542423 0.01535 62.0735 1.47574 0.739633 28.7808 5.85108e-006 8.3626e-006 -179.962 1.81997 90.1288 -7.48144 0.147944 -0.00240305 62.6698 -1.15015 -0.583123 28.7808 1.43143e-005 3.292e-005 -0.00197774 6.33758 -89.9753 14.1989 0.00157272 6.06831e-006 2.52801 9.49956e-005 -1.07009e-005 -20.0072 -1.48128e-006 8.05938e-006 0.00549218 -3.72721e-017 1.55301e-017 101.136 -18.0097 -84.7245 -6.04978 28.1697 -7.82919 -7.382 -28.6841 -10.9634 2.17935 0.147726 2.07834 -78.8457 -21.1067 94.629 13.2081 -45.7887 -7.49763 5.25359 45.4345 -11.8832 -1.88913 -0.0622395 2.383 1.75125 0.0118965 -0.0132152 -7.46318 0.0133427 -0.0664451 
4.37188 96.0952 -5.59749 -85.5903 -89.883 -85.5802 -179.678 1.56977 90.5263 -6.99791 -0.00677537 0.0120362 62.4974 1.52398 0.779108 28.7808 5.85108e-006 8.3626e-006 -179.967 1.65948 90.1337 -7.13245 0.0987343 -0.00240304 62.5354 -1.12143 -0.563118 28.7808 1.43143e-005 3.292e-005 -0.000160178 6.33762 -89.9981 14.1989 0.00157272 6.06831e-006 2.52801 9.49956e-005 -1.07009e-005 -20.0072 -1.48128e-006 8.05938e-006 0.00549218 -4.96962e-017 1.2424e-017 101.13 -18.0406 -84.777 -6.19419 28 -8.1907 -6.79243 -28.6182 -9.78588 1.9186 0.119831 1.55297 -78.8306 -21.1171 94.6313 13.1398 -45.7495 -7.53901 4.92067 43.571 -12.1574 -2.31759 -0.0862138 4.13608 1.83424 0.00759117 -0.0514309 -7.52771 0.0118752 -0.116729 
4.39454 96.1031 -5.57383 -88.8808 -89.8342 -88.8847 -179.698 0.809306 90.4835 -5.47385 -0.0981234 0.00573998 61.8333 1.56185 0.787304 28.7808 5.85108e-006 8.3626e-006 -179.969 1.59509 90.1066 -7.03466 0.0626111 -0.00240304 62.5002 -1.11538 -0.559813 28.7808 1.43143e-005 3.292e-005 -0.00177413 6.33758 -89.9776 14.1989 0.00157272 6.06831e-006 2.52801 9.49956e-005 -1.07009e-005 -20.0072 -1.48128e-006 8.05938e-006 0.00549218 -4.96962e-017 9.31803e-018 101.121 -18.0789 -84.7602 -6.21056 28.2215 -7.66803 -7.40199 -28.5854 -11.0378 2.23947 0.15784 2.33104 -78.841 -21.1653 94.6496 13.1163 -45.7704 -7.60725 4.97393 43.5929 -12.1319 -2.48331 -0.0993746 3.85605 1.83619 0.0432939 -0.045896 -7.42849 0.0327425 -0.209445 
4.41496 96.0982 -5.55303 -86.5928 -89.7881 -86.5989 -179.71 0.854958 90.4672 -5.591 -0.19204 0.00129297 61.8996 1.58616 0.802558 28.7808 5.85108e-006 8.3626e-006 -179.976 1.6755 90.0961 -7.19705 0.0583029 -0.00240304 62.578 -1.13488 -0.572528 28.7808 1.43143e-005 3.292e-005 -0.00190949 6.33758 -89.9757 14.1989 0.00157272 6.06831e-006 2.52801 9.49956e-005 -1.07009e-005 -20.0072 -1.48128e-006 8.05938e-006 0.00549218 0 6.21202e-018 101.133 -18.0723 -84.735 -6.21716 28.1869 -7.73661 -7.27641 -28.4473 -10.8294 2.11151 0.15152 2.41104 -78.8379 -21.189 94.6498 13.1537 -45.7922 -7.59078 5.52511 46.4843 -11.8087 -2.21159 -0.104287 1.69206 1.89041 0.0348345 -0.108232 -7.38752 0.0434196 -0.198015 
4.43936 96.1056 -5.53135 -88.6085 -89.736 -88.5773 -179.7 1.30331 90.4917 -6.57159 -0.150687 0.00350604 62.3684 1.57663 0.808604 28.7808 5.85108e-006 8.3626e-006 -179.969 1.25908 90.1168 -6.36819 0.0233095 -0.00242301 62.2068 -1.09208 -0.540077 28.7808 1.43143e-005 3.292e-005 0.000329944 6.33762 -90.0042 14.1989 0.00157272 6.06831e-006 2.52801 9.49956e-005 -1.07009e-005 -20.0072 -1.48128e-006 8.05938e-006 0.00549218 -9.93923e-017 2.48481e-017 101.128 -18.0941 -84.7438 -6.25639 28.1829 -7.72202 -7.23967 -28.4168 -10.7647 2.20767 0.158114 2.42275 -78.8425 -21.1525 94.6343 13.2076 -45.8079 -7.50942 5.47446 46.1725 -11.8198 -2.32332 -0.105893 1.89804 1.89337 0.0290131 -0.162305 -7.34433 0.0552424 -0.170628 
4.4607 96.1024 -5.51372 -87.1018 -89.6959 -87.0722 -179.712 1.27782 90.472 -6.5332 -0.251721 0.00296834 62.3676 1.57453 0.806588 28.7808 5.85108e-006 8.3626e-006 -179.978 1.39893 90.1022 -6.65341 -0.0169388 -0.00278311 62.3345 -1.10476 -0.54987 28.7808 1.43143e-005 3.292e-005 -0.000110145 6.33762 -89.9984 14.1989 0.00157272 6.06831e-006 2.52801 9.49956e-005 -1.07009e-005 -20.0072 -1.48128e-006 8.05938e-006 0.00549218 -9.93923e-017 6.21202e-018 101.148 -18.0901 -84.7223 -6.20945 28.1956 -7.65604 -7.3065 -28.3168 -10.9357 2.22446 0.164021 2.61516 -78.8239 -21.1607 94.6454 13.3171 -45.8362 -7.43771 5.51957 46.0791 -11.8714 -2.49358 -0.105258 1.82215 1.93116 0.0106874 -0.108735 -7.36734 0.0439822 -0.255695 
4.48097 96.1119 -5.49919 -86.5188 -89.6646 -86.4871 -179.719 0.857335 90.4592 -5.67825 -0.258193 0.0013916 61.9638 1.61417 0.821909 28.7808 5.85108e-006 8.3626e-006 -179.974 1.21409 90.0931 -6.27314 -0.025845 -0.0032102 62.1587 -1.13559 -0.565472 28.7808 1.43143e-005 3.292e-005 -0.000767627 6.33762 -89.9899 14.1989 0.00157272 6.06831e-006 2.52801 9.49956e-005 -1.07009e-005 -20.0072 -1.48128e-006 8.05938e-006 0.00549218 -9.93923e-017 2.48481e-017 101.17 -18.1457 -84.6792 -6.20485 28.2522 -7.54835 -7.48119 -28.4274 -11.2541 2.34204 0.177939 2.84641 -78.814 -21.0878 94.6542 13.325 -45.8591 -7.43452 5.62585 46.7677 -11.7914 -2.37551 -0.103232 1.56156 1.9581 0.0124078 -0.161996 -7.37622 0.0407722 -0.203169 
4.50841 96.097 -5.48818 -90.0159 -89.6541 -89.9886 -179.723 0.803753 90.4418 -5.63476 -0.268086 -0.000841833 61.9767 1.64256 0.836473 28.7808 5.85108e-006 8.3626e-006 -179.99 1.65294 90.0725 -7.23884 -0.0891236 -0.00369073 62.5855 -1.07631 -0.538371 28.7808 1.43143e-005 3.292e-005 -0.00205376 6.33757 -89.9734 14.1989 0.00157272 5.42774e-005 2.52801 9.49956e-005 3.75792e-005 -20.0072 -1.48128e-006 5.65076e-005 0.00549218 -4.96962e-017 4.85745e-005 101.17 -18.1868 -84.6709 -6.22304 28.2785 -7.45187 -7.55647 -28.4259 -11.4081 2.45006 0.188848 2.97303 -78.8275 -21.0024 94.6281 13.3397 -45.8779 -7.40442 5.67793 46.8252 -11.7783 -2.44535 -0.100653 1.42744 1.88765 0.0131551 -0.220555 -7.32704 0.0428393 -0.168502 
